<mxfile host="app.diagrams.net" modified="2023-08-13T10:08:46.931Z" agent="Mozilla/5.0 (Macintosh; Intel Mac OS X 10_15_7) AppleWebKit/537.36 (KHTML, like Gecko) Chrome/115.0.0.0 Safari/537.36" version="21.6.8" etag="ifomA1GcrH_g2eNu0l2F" type="github">
  <diagram name="Page-1" id="fmFJNApXTI4TmAhdc2C7">
    <mxGraphModel>
      <root>
        <mxCell id="0" />
        <mxCell id="1" parent="0" />
      </root>
    </mxGraphModel>
  </diagram>
</mxfile>
